<svg xmlns="http://www.w3.org/2000/svg" width="62" height="20" viewBox="0 0 62 20" fill="none">
  <path d="M59.3253 15.6866L61.5 0H2.5C1.39543 0 0.5 0.895432 0.5 2V18C0.5 19.1046 1.39543 20 2.5 20H54.3726C56.8687 20 58.9825 18.1591 59.3253 15.6866Z" fill="#9462FF"/>
  <mask id="mask0_114_25958" style="mask-type:alpha" maskUnits="userSpaceOnUse" x="3" y="2" width="53" height="15">
    <rect x="3.5" y="2" width="52" height="15" fill="#D9D9D9"/>
  </mask>
  <g mask="url(#mask0_114_25958)">
    <path d="M40.9806 16.7131C40.1119 16.7131 39.4511 16.4401 38.9984 15.8939C38.5579 15.3478 38.3376 14.5702 38.3376 13.561C38.3376 12.5519 38.5028 11.5903 38.8332 10.6761C39.1758 9.76192 39.7081 8.99023 40.43 8.361C41.1519 7.7199 41.9962 7.39935 42.9628 7.39935C43.3789 7.39935 43.9906 7.49432 44.7982 7.68428L45.1653 7.77332L45.615 5.90344L45.8398 4.9685L45.9522 4.50103L46.0343 4.16042L46.0753 3.99011L48.6803 3.37446L48.5241 4.03356L45.5507 16.4994H43.1647L43.3299 15.5734C43.0852 15.8465 42.7303 16.1076 42.2654 16.357C41.8004 16.5944 41.3722 16.7131 40.9806 16.7131ZM44.7248 9.67882C44.0151 9.51261 43.4339 9.4295 42.9812 9.4295C42.5407 9.4295 42.1491 9.66695 41.8065 10.1418C41.4762 10.6049 41.2314 11.145 41.0724 11.7624C40.9133 12.3798 40.8338 12.9734 40.8338 13.5432C40.8338 14.3031 41.1458 14.683 41.7698 14.683C41.9656 14.683 42.2348 14.5761 42.5774 14.3624C42.9322 14.1487 43.232 13.935 43.4767 13.7213L43.8438 13.4008L44.7248 9.67882Z" fill="white"/>
    <path d="M51.9668 9.35008C51.5988 9.35008 51.3167 9.4334 51.1204 9.60003C50.9241 9.76666 50.826 9.96305 50.826 10.1892C50.826 10.4034 50.9119 10.5641 51.0836 10.6712C51.2554 10.7784 51.697 10.939 52.4084 11.1533C53.1322 11.3675 53.6719 11.6175 54.0277 11.9031C54.3957 12.1769 54.5797 12.6292 54.5797 13.26C54.5797 14.3788 54.1994 15.2239 53.4389 15.7952C52.6906 16.3665 51.6908 16.6521 50.4396 16.6521C49.9121 16.6521 49.3785 16.5986 48.8388 16.4915C48.3113 16.3962 47.9188 16.2951 47.6612 16.1879L47.2563 16.0451L47.7164 14.2955C48.894 14.5097 49.9121 14.6168 50.7708 14.6168C51.6295 14.6168 52.0588 14.3252 52.0588 13.742C52.0588 13.5873 51.973 13.4683 51.8012 13.385C51.6295 13.2897 51.3351 13.1826 50.918 13.0636C50.0471 12.8256 49.4031 12.5458 48.986 12.2245C48.5689 11.9031 48.3604 11.4449 48.3604 10.8498C48.3604 9.74286 48.7345 8.87994 49.4828 8.26102C50.2311 7.6302 51.1327 7.31479 52.1876 7.31479C52.7642 7.31479 53.3285 7.3624 53.8805 7.45762C54.4325 7.54093 54.8373 7.6302 55.0949 7.72542L55.4997 7.86825L55.0581 9.63574C53.7946 9.4453 52.7642 9.35008 51.9668 9.35008Z" fill="white"/>
    <path d="M23.0671 13.7034C23.0671 14.0002 23.1894 14.2376 23.4342 14.4157C23.6911 14.5938 24.0093 14.6828 24.3886 14.6828C25.2329 14.6828 26.0955 14.6235 26.9765 14.5047L27.4537 14.4513L27.1784 16.2143C26.0404 16.5468 24.9147 16.713 23.8012 16.713C22.6878 16.713 21.8741 16.4696 21.3602 15.9828C20.8585 15.4961 20.6077 14.7837 20.6077 13.8458C20.6077 12.9079 20.7056 12.0709 20.9013 11.3349C21.0971 10.5988 21.3846 9.93393 21.764 9.34032C22.1555 8.74671 22.6817 8.27775 23.3424 7.93346C24.0154 7.57729 24.7801 7.39921 25.6366 7.39921C27.7779 7.39921 28.8486 8.28369 28.8486 10.0527C28.8486 11.1805 28.457 11.9581 27.6739 12.3856C26.8908 12.813 25.5877 13.0267 23.7645 13.0267H23.1222C23.0854 13.1691 23.0671 13.3947 23.0671 13.7034ZM24.15 11.2636C24.9942 11.2636 25.5816 11.1746 25.9119 10.9965C26.2546 10.8184 26.4259 10.5157 26.4259 10.0883C26.4259 9.57777 26.12 9.32251 25.5082 9.32251C24.4192 9.32251 23.7156 9.96955 23.3975 11.2636H24.15Z" fill="white"/>
    <path d="M14.0007 16.5055L15.0561 12.0534L15.5838 9.82739L15.7157 9.27088L15.7816 8.99262L15.7981 8.92306L18.4286 8.08217L18.3873 8.24244L18.2221 8.88354C18.5892 8.56299 19.0603 8.24838 19.6354 7.9397C20.2105 7.61915 20.6999 7.43513 21.1037 7.38764L20.3879 9.88081C19.8006 10.0589 19.0848 10.332 18.2405 10.7L17.8 10.8959L16.4602 16.5055H14.0007Z" fill="white"/>
    <path fill-rule="evenodd" clip-rule="evenodd" d="M35.5406 7.38135C37.0334 7.38135 37.7798 8.21834 37.7798 9.89233C37.7798 10.3197 37.6513 11.0677 37.3944 12.1362L36.3666 16.4992H33.9072L34.8983 12.3143C35.1185 11.4238 35.2286 10.8065 35.2286 10.4622C35.2286 10.106 35.1797 9.85077 35.0818 9.69643C34.9962 9.53022 34.831 9.44712 34.5862 9.44712C34.158 9.44712 33.638 9.71424 33.0262 10.2485L32.8021 10.4523L32.7036 10.8898L31.3637 16.4994H28.9043L29.9596 12.0473L30.4873 9.8213L30.7512 8.70828L30.7841 8.56915L30.7924 8.53437L33.3735 7.9158L33.2599 8.42006C33.5343 8.16556 33.8846 7.93211 34.3109 7.71971C34.7759 7.49413 35.1858 7.38135 35.5406 7.38135Z" fill="white"/>
    <path d="M9.74174 10.7457L8.55792 15.5424L8.43292 16.057L8.37042 16.3143L8.33918 16.4429L8.33154 16.4751H9.82434H10.8482L10.8569 16.4455L10.8781 16.3634L10.9207 16.1992L11.0908 15.5424L12.2746 10.7457L12.5705 9.49912L12.6075 9.34335L9.81573 10.4341L9.74174 10.7457Z" fill="white"/>
    <path fill-rule="evenodd" clip-rule="evenodd" d="M3.892 7.73047L3.90245 7.74551C3.90665 7.74585 3.91086 7.7462 3.91506 7.74654C6.41754 9.48454 9.84743 9.64198 12.5233 7.89172L15.6733 5.83142L14.1441 3.63047L10.3224 6.13016C8.36574 7.40999 6.10669 7.92481 3.91506 7.74654C3.90736 7.7412 3.89968 7.73584 3.892 7.73047Z" fill="white"/>
    <path d="M11.4208 3.00109L17.3249 2.7788C17.535 2.77089 17.6818 2.98215 17.5956 3.16821L15.1735 8.39279C15.0667 8.62321 14.7223 8.59797 14.647 8.35421L13.7628 5.49189C13.746 5.43769 13.7126 5.38967 13.6671 5.35436L11.2607 3.48945C11.0557 3.33053 11.1605 3.01089 11.4208 3.00109Z" fill="white"/>
  </g>
</svg>